<svg width="395" height="395" viewBox="0 0 395 395" fill="none" xmlns="http://www.w3.org/2000/svg">
<rect width="395" height="395" rx="61" fill="#F6F1EB"/>
<mask id="path-2-inside-1_3417_12149" fill="white">
<path fill-rule="evenodd" clip-rule="evenodd" d="M213.064 154.539C213.307 153.805 213.679 153.088 213.776 152.334C214.188 149.177 214.234 145.945 214.942 142.861C216.98 133.983 216.744 124.897 217.681 115.923C218.632 106.827 218.936 97.6617 219.956 88.5757C220.508 83.6688 221.766 78.8051 223.11 74.0339C223.666 72.0487 225.179 70.2903 226.431 68.5527C227.472 67.1105 228.839 67.0583 230.49 67.8771C234.24 69.7384 236.268 73.0077 237.263 76.729C239.238 84.1162 239.718 91.7704 240.423 99.3605C240.811 103.546 240.673 107.777 240.985 111.971C241.526 119.321 242.607 126.651 242.769 134.006C243.019 145.226 243.24 156.42 244.549 167.588C245.286 173.892 245.417 180.267 245.97 186.596C246.055 187.591 246.783 188.641 247.46 189.462C252.237 195.251 253.868 202.138 252.572 209.174C251.669 214.059 249.229 218.832 246.707 223.211C242.897 229.83 238.411 236.059 234.218 242.462C231.415 246.744 228.553 251.085 227.762 256.221C226.161 266.62 226.84 277.073 227.792 287.484C228.257 292.544 229.299 297.55 229.977 302.595C231.232 311.92 232.524 321.237 233.551 330.586C233.836 333.163 234.046 336.301 232.866 338.361C230.876 341.833 227.908 344.749 224.094 346.659C220.017 348.704 215.789 349.581 211.285 350.134C201.345 351.363 191.399 350.892 181.451 350.988C180.948 350.996 180.432 350.883 179.945 350.741C172.972 348.726 165.946 346.877 159.05 344.622C154.1 343.002 153.363 341.457 153.838 336.303C153.887 335.798 153.976 335.291 154.085 334.793C156.145 325.206 158.267 315.625 160.26 306.023C162.494 295.287 164.46 284.523 164.02 273.458C163.866 269.562 163.229 265.849 161.46 262.381C159.722 258.976 157.897 255.614 156.076 252.248C151.28 243.383 149.031 233.67 146.855 223.971C145.967 220.02 145.754 215.902 145.419 211.846C144.864 205.128 144.29 198.409 144.048 191.676C143.809 185.057 144 178.422 143.96 171.795C143.941 169.014 143.862 166.23 143.712 163.45C143.494 159.389 143.057 155.335 143 151.273C142.981 149.999 143.588 148.467 144.415 147.483C147.219 144.157 151.011 142.456 155.148 141.235C158.106 140.362 160.331 142.003 162.853 142.679C163.329 142.804 163.782 143.01 164.427 143.245C171.411 137.036 179.053 136.91 186.858 141.393C187.198 140.838 187.428 140.637 187.435 140.427C187.825 131.505 188.338 122.586 188.529 113.658C188.825 99.8706 188.847 86.079 189.09 72.2918C189.177 67.4491 189.569 62.6137 189.837 57.7724C190.117 52.606 192.267 48.4657 196.586 45.5036C200.227 43.0009 203.428 43.6079 205.556 47.4335C206.415 48.9727 207.047 50.6969 207.456 52.4165C210.284 64.2618 210.893 76.371 211.36 88.4668C211.694 97.0144 211.596 105.58 211.727 114.135C211.873 123.7 212.102 133.262 212.208 142.826C212.252 146.692 211.972 150.567 212.264 154.42C212.529 154.464 212.797 154.502 213.064 154.539ZM182.83 212.599C178.57 217.24 176.662 223.043 173.654 229.005C172.148 225.825 173.19 223.458 173.961 221.172C175.672 216.117 178.871 211.989 182.45 208.121C183.112 207.402 183.705 206.616 184.642 205.483C183.582 205.381 183.005 205.296 182.427 205.277C177.694 205.107 173.966 203.168 172.077 198.719C171.214 196.688 170.065 196.055 168.015 196.175C165.721 196.309 163.417 196.234 161.117 196.191C155.497 196.085 151.413 193.238 148.594 188.634C147.815 187.356 147.731 185.455 147.844 183.876C148.016 181.37 147.524 179.147 146.297 176.812C146.297 182.103 146.098 187.154 146.345 192.185C146.697 199.428 147.292 206.666 147.956 213.887C148.332 217.932 148.829 221.993 149.68 225.959C150.717 230.814 152.12 235.599 153.488 240.379C155.324 246.798 158.412 252.664 161.765 258.397C164.302 262.73 166.419 267.295 166.651 272.336C166.946 278.823 167.055 285.332 165.783 291.788C163.221 304.785 160.811 317.814 158.279 330.818C157.818 333.193 156.93 335.481 156.466 337.851C155.936 340.556 156.421 341.612 158.762 342.316C165.461 344.345 172.206 346.225 178.956 348.09C180.168 348.419 181.481 348.509 182.741 348.488C190.78 348.324 198.831 348.324 206.847 347.799C212.011 347.46 217.174 346.862 221.94 344.192C225.298 342.307 227.81 339.712 230.117 336.832C230.751 336.039 231.002 334.683 230.93 333.619C230.588 328.545 230.23 323.462 229.596 318.415C228.24 307.553 226.382 296.741 225.358 285.852C224.583 277.619 224.636 269.295 224.586 261.013C224.537 253.343 227.574 246.659 231.826 240.41C236.131 234.083 240.55 227.804 244.386 221.194C246.859 216.934 249.433 212.259 250.068 207.516C251.045 200.146 250.045 192.671 243.209 187.654C233.106 180.231 222.502 173.622 211.171 168.213C206.632 166.049 201.948 164.239 196.841 164.645C193.821 164.887 190.733 165.462 187.889 166.48C183.093 168.196 178.435 170.325 173.767 172.387C168.168 174.86 162.585 177.376 157.065 180.025C155.139 180.953 153.259 182.144 151.665 183.561C149.789 185.227 149.81 187.374 151.268 189.415C153.115 191.997 155.836 193.345 158.8 193.459C166.56 193.757 174.388 194.272 181.939 191.738C184.102 191.013 186.215 190.089 188.244 189.056C190.912 187.702 190.923 187.643 192.703 190.336C194.243 192.668 195.682 195.086 197.398 197.287C202.978 204.443 209.532 210.074 219.226 210.496C220.402 210.548 220.402 210.628 221.746 212.721C218.81 213.525 216.152 212.943 213.543 212.024C208.508 210.244 204.303 207.161 200.492 203.49C199.222 202.263 197.984 201.001 196.715 199.738C191.142 203.287 187.073 207.978 182.83 212.599ZM193.069 55.6709C192.345 59.0118 192.082 62.4959 192.015 65.9233C191.712 80.8588 191.648 95.7989 191.311 110.731C191.132 118.629 190.572 126.517 190.168 134.408C189.902 139.626 189.741 144.855 189.26 150.054C189.017 152.692 188.11 155.261 187.62 157.884C187.323 159.459 187.252 161.076 187.055 162.946C188.156 162.878 188.786 162.954 189.34 162.785C195.522 160.922 201.53 161.82 207.262 164.311C218.778 169.31 229.453 175.81 239.627 183.147C240.535 183.8 241.49 184.392 242.958 185.369C242.958 183.171 243.063 181.463 242.94 179.772C242.67 176.094 242.291 172.426 241.948 168.753C241.63 165.334 241.299 161.917 240.961 158.5C240.912 157.996 240.758 157.495 240.736 156.989C240.503 152.029 240.327 147.065 240.065 142.106C239.518 131.807 238.923 121.507 238.357 111.209C238.122 106.891 238.05 102.557 237.638 98.2538C236.925 90.792 236.52 83.275 234.58 75.9862C234.253 74.7707 233.68 73.5969 233.055 72.4977C232.1 70.8108 230.575 70.0293 228.611 69.9965C226.546 69.9622 226.182 71.646 225.579 72.9705C223.263 78.0489 222.716 83.5658 222.236 88.9918C221.417 98.2419 221.197 107.546 220.487 116.806C219.824 125.421 218.925 134.021 217.972 142.61C217.553 146.388 216.849 150.149 216.043 153.866C215.792 155.009 214.979 156.27 214.042 156.945C213.291 157.482 211.854 157.531 210.921 157.21C209.875 156.846 209.556 155.826 209.556 154.434C209.56 140.67 209.417 126.902 209.245 113.137C209.139 104.587 208.993 96.0345 208.72 87.4884C208.341 75.6268 207.858 63.7651 205.025 52.1585C204.557 50.2375 203.776 48.3926 203.178 46.6147C197.908 47.274 194.188 50.5045 193.069 55.6709ZM161.592 174.431C164.837 172.879 164.811 172.589 164.324 169.139C163.841 165.753 163.541 162.329 163.39 158.912C163.236 155.471 163.382 152.018 163.364 148.573C163.348 145.025 160.677 142.586 157.237 143.424C154.673 144.049 152.13 145.116 149.858 146.46C146.725 148.315 145.175 151.025 145.443 155.041C145.867 161.352 148.24 175.215 150.255 179.643C154.191 177.842 157.915 176.188 161.592 174.431ZM184.393 164.242C184.887 157.303 185.382 150.393 185.915 142.995C181.336 140.512 176.379 139.635 171.181 142.55C170.735 142.799 170.328 143.123 169.863 143.319C166.903 144.564 165.824 146.685 166.048 149.938C166.471 156.018 166.524 162.123 166.782 168.216C166.822 169.213 167.134 170.199 167.404 171.658C173.426 169.028 178.99 166.599 184.393 164.242ZM173.991 196.536C174.722 201.657 181.123 204.545 185.243 201.768C186.686 200.797 187.244 199.563 186.835 197.864C186.543 196.647 186.325 195.415 186.045 194.067C181.845 194.929 177.911 195.733 173.991 196.536ZM191.383 191.659C188.077 192.94 188.077 192.94 189.868 200.794C191.626 199.638 193.203 198.6 195.171 197.31C193.684 195.09 192.509 193.344 191.383 191.659Z"/>
</mask>
<path fill-rule="evenodd" clip-rule="evenodd" d="M213.064 154.539C213.307 153.805 213.679 153.088 213.776 152.334C214.188 149.177 214.234 145.945 214.942 142.861C216.98 133.983 216.744 124.897 217.681 115.923C218.632 106.827 218.936 97.6617 219.956 88.5757C220.508 83.6688 221.766 78.8051 223.11 74.0339C223.666 72.0487 225.179 70.2903 226.431 68.5527C227.472 67.1105 228.839 67.0583 230.49 67.8771C234.24 69.7384 236.268 73.0077 237.263 76.729C239.238 84.1162 239.718 91.7704 240.423 99.3605C240.811 103.546 240.673 107.777 240.985 111.971C241.526 119.321 242.607 126.651 242.769 134.006C243.019 145.226 243.24 156.42 244.549 167.588C245.286 173.892 245.417 180.267 245.97 186.596C246.055 187.591 246.783 188.641 247.46 189.462C252.237 195.251 253.868 202.138 252.572 209.174C251.669 214.059 249.229 218.832 246.707 223.211C242.897 229.83 238.411 236.059 234.218 242.462C231.415 246.744 228.553 251.085 227.762 256.221C226.161 266.62 226.84 277.073 227.792 287.484C228.257 292.544 229.299 297.55 229.977 302.595C231.232 311.92 232.524 321.237 233.551 330.586C233.836 333.163 234.046 336.301 232.866 338.361C230.876 341.833 227.908 344.749 224.094 346.659C220.017 348.704 215.789 349.581 211.285 350.134C201.345 351.363 191.399 350.892 181.451 350.988C180.948 350.996 180.432 350.883 179.945 350.741C172.972 348.726 165.946 346.877 159.05 344.622C154.1 343.002 153.363 341.457 153.838 336.303C153.887 335.798 153.976 335.291 154.085 334.793C156.145 325.206 158.267 315.625 160.26 306.023C162.494 295.287 164.46 284.523 164.02 273.458C163.866 269.562 163.229 265.849 161.46 262.381C159.722 258.976 157.897 255.614 156.076 252.248C151.28 243.383 149.031 233.67 146.855 223.971C145.967 220.02 145.754 215.902 145.419 211.846C144.864 205.128 144.29 198.409 144.048 191.676C143.809 185.057 144 178.422 143.96 171.795C143.941 169.014 143.862 166.23 143.712 163.45C143.494 159.389 143.057 155.335 143 151.273C142.981 149.999 143.588 148.467 144.415 147.483C147.219 144.157 151.011 142.456 155.148 141.235C158.106 140.362 160.331 142.003 162.853 142.679C163.329 142.804 163.782 143.01 164.427 143.245C171.411 137.036 179.053 136.91 186.858 141.393C187.198 140.838 187.428 140.637 187.435 140.427C187.825 131.505 188.338 122.586 188.529 113.658C188.825 99.8706 188.847 86.079 189.09 72.2918C189.177 67.4491 189.569 62.6137 189.837 57.7724C190.117 52.606 192.267 48.4657 196.586 45.5036C200.227 43.0009 203.428 43.6079 205.556 47.4335C206.415 48.9727 207.047 50.6969 207.456 52.4165C210.284 64.2618 210.893 76.371 211.36 88.4668C211.694 97.0144 211.596 105.58 211.727 114.135C211.873 123.7 212.102 133.262 212.208 142.826C212.252 146.692 211.972 150.567 212.264 154.42C212.529 154.464 212.797 154.502 213.064 154.539ZM182.83 212.599C178.57 217.24 176.662 223.043 173.654 229.005C172.148 225.825 173.19 223.458 173.961 221.172C175.672 216.117 178.871 211.989 182.45 208.121C183.112 207.402 183.705 206.616 184.642 205.483C183.582 205.381 183.005 205.296 182.427 205.277C177.694 205.107 173.966 203.168 172.077 198.719C171.214 196.688 170.065 196.055 168.015 196.175C165.721 196.309 163.417 196.234 161.117 196.191C155.497 196.085 151.413 193.238 148.594 188.634C147.815 187.356 147.731 185.455 147.844 183.876C148.016 181.37 147.524 179.147 146.297 176.812C146.297 182.103 146.098 187.154 146.345 192.185C146.697 199.428 147.292 206.666 147.956 213.887C148.332 217.932 148.829 221.993 149.68 225.959C150.717 230.814 152.12 235.599 153.488 240.379C155.324 246.798 158.412 252.664 161.765 258.397C164.302 262.73 166.419 267.295 166.651 272.336C166.946 278.823 167.055 285.332 165.783 291.788C163.221 304.785 160.811 317.814 158.279 330.818C157.818 333.193 156.93 335.481 156.466 337.851C155.936 340.556 156.421 341.612 158.762 342.316C165.461 344.345 172.206 346.225 178.956 348.09C180.168 348.419 181.481 348.509 182.741 348.488C190.78 348.324 198.831 348.324 206.847 347.799C212.011 347.46 217.174 346.862 221.94 344.192C225.298 342.307 227.81 339.712 230.117 336.832C230.751 336.039 231.002 334.683 230.93 333.619C230.588 328.545 230.23 323.462 229.596 318.415C228.24 307.553 226.382 296.741 225.358 285.852C224.583 277.619 224.636 269.295 224.586 261.013C224.537 253.343 227.574 246.659 231.826 240.41C236.131 234.083 240.55 227.804 244.386 221.194C246.859 216.934 249.433 212.259 250.068 207.516C251.045 200.146 250.045 192.671 243.209 187.654C233.106 180.231 222.502 173.622 211.171 168.213C206.632 166.049 201.948 164.239 196.841 164.645C193.821 164.887 190.733 165.462 187.889 166.48C183.093 168.196 178.435 170.325 173.767 172.387C168.168 174.86 162.585 177.376 157.065 180.025C155.139 180.953 153.259 182.144 151.665 183.561C149.789 185.227 149.81 187.374 151.268 189.415C153.115 191.997 155.836 193.345 158.8 193.459C166.56 193.757 174.388 194.272 181.939 191.738C184.102 191.013 186.215 190.089 188.244 189.056C190.912 187.702 190.923 187.643 192.703 190.336C194.243 192.668 195.682 195.086 197.398 197.287C202.978 204.443 209.532 210.074 219.226 210.496C220.402 210.548 220.402 210.628 221.746 212.721C218.81 213.525 216.152 212.943 213.543 212.024C208.508 210.244 204.303 207.161 200.492 203.49C199.222 202.263 197.984 201.001 196.715 199.738C191.142 203.287 187.073 207.978 182.83 212.599ZM193.069 55.6709C192.345 59.0118 192.082 62.4959 192.015 65.9233C191.712 80.8588 191.648 95.7989 191.311 110.731C191.132 118.629 190.572 126.517 190.168 134.408C189.902 139.626 189.741 144.855 189.26 150.054C189.017 152.692 188.11 155.261 187.62 157.884C187.323 159.459 187.252 161.076 187.055 162.946C188.156 162.878 188.786 162.954 189.34 162.785C195.522 160.922 201.53 161.82 207.262 164.311C218.778 169.31 229.453 175.81 239.627 183.147C240.535 183.8 241.49 184.392 242.958 185.369C242.958 183.171 243.063 181.463 242.94 179.772C242.67 176.094 242.291 172.426 241.948 168.753C241.63 165.334 241.299 161.917 240.961 158.5C240.912 157.996 240.758 157.495 240.736 156.989C240.503 152.029 240.327 147.065 240.065 142.106C239.518 131.807 238.923 121.507 238.357 111.209C238.122 106.891 238.05 102.557 237.638 98.2538C236.925 90.792 236.52 83.275 234.58 75.9862C234.253 74.7707 233.68 73.5969 233.055 72.4977C232.1 70.8108 230.575 70.0293 228.611 69.9965C226.546 69.9622 226.182 71.646 225.579 72.9705C223.263 78.0489 222.716 83.5658 222.236 88.9918C221.417 98.2419 221.197 107.546 220.487 116.806C219.824 125.421 218.925 134.021 217.972 142.61C217.553 146.388 216.849 150.149 216.043 153.866C215.792 155.009 214.979 156.27 214.042 156.945C213.291 157.482 211.854 157.531 210.921 157.21C209.875 156.846 209.556 155.826 209.556 154.434C209.56 140.67 209.417 126.902 209.245 113.137C209.139 104.587 208.993 96.0345 208.72 87.4884C208.341 75.6268 207.858 63.7651 205.025 52.1585C204.557 50.2375 203.776 48.3926 203.178 46.6147C197.908 47.274 194.188 50.5045 193.069 55.6709ZM161.592 174.431C164.837 172.879 164.811 172.589 164.324 169.139C163.841 165.753 163.541 162.329 163.39 158.912C163.236 155.471 163.382 152.018 163.364 148.573C163.348 145.025 160.677 142.586 157.237 143.424C154.673 144.049 152.13 145.116 149.858 146.46C146.725 148.315 145.175 151.025 145.443 155.041C145.867 161.352 148.24 175.215 150.255 179.643C154.191 177.842 157.915 176.188 161.592 174.431ZM184.393 164.242C184.887 157.303 185.382 150.393 185.915 142.995C181.336 140.512 176.379 139.635 171.181 142.55C170.735 142.799 170.328 143.123 169.863 143.319C166.903 144.564 165.824 146.685 166.048 149.938C166.471 156.018 166.524 162.123 166.782 168.216C166.822 169.213 167.134 170.199 167.404 171.658C173.426 169.028 178.99 166.599 184.393 164.242ZM173.991 196.536C174.722 201.657 181.123 204.545 185.243 201.768C186.686 200.797 187.244 199.563 186.835 197.864C186.543 196.647 186.325 195.415 186.045 194.067C181.845 194.929 177.911 195.733 173.991 196.536ZM191.383 191.659C188.077 192.94 188.077 192.94 189.868 200.794C191.626 199.638 193.203 198.6 195.171 197.31C193.684 195.09 192.509 193.344 191.383 191.659Z" stroke="#43936C" stroke-width="12" mask="url(#path-2-inside-1_3417_12149)"/>
<path fill-rule="evenodd" clip-rule="evenodd" d="M194 323.2C204.604 323.2 213.2 314.604 213.2 304C213.2 293.396 204.604 284.8 194 284.8C183.396 284.8 174.8 293.396 174.8 304C174.8 314.604 183.396 323.2 194 323.2ZM202.897 300.897C203.834 299.96 203.834 298.44 202.897 297.503C201.96 296.565 200.44 296.565 199.503 297.503L191.6 305.406L188.497 302.303C187.56 301.365 186.04 301.365 185.103 302.303C184.165 303.24 184.165 304.76 185.103 305.697L189.903 310.497C190.84 311.434 192.36 311.434 193.297 310.497L202.897 300.897Z" fill="#43936C"/>
</svg>
