<svg width="395" height="395" viewBox="0 0 395 395" fill="none" xmlns="http://www.w3.org/2000/svg">
<rect width="395" height="395" rx="61" fill="#F6F1EB"/>
<mask id="path-2-inside-1_3417_12139" fill="white">
<path fill-rule="evenodd" clip-rule="evenodd" d="M214.39 130.354C214.94 126.425 215.659 122.513 216.007 118.563C216.518 112.8 216.709 107.007 217.125 101.237C217.743 92.6 218.295 83.9506 219.153 75.34C219.82 68.6383 220.735 61.9528 221.873 55.3253C222.454 51.9656 223.537 48.6414 225.819 46.0192C227.914 43.6148 228.918 43.3695 231.446 45.2204C234.769 47.6522 236.632 51.1636 237.467 55.3931C238.397 60.1115 239.251 64.8042 239.446 69.6678C239.698 75.8499 240.473 82.0029 240.889 88.1801C241.226 93.1245 241.117 98.1172 241.65 103.033C242.541 111.264 242.995 119.5 242.878 127.78C242.853 129.436 242.893 131.099 243.013 132.749C243.521 139.613 244.106 146.468 244.602 153.333C245.081 160.051 245.43 166.781 245.976 173.494C246.052 174.44 246.812 175.402 247.427 176.199C252.238 182.442 253.86 189.901 252.579 197.516C251.687 202.804 249.246 207.971 246.722 212.712C242.916 219.875 238.427 226.617 234.237 233.545C231.434 238.179 228.55 242.873 227.769 248.433C226.169 259.824 226.822 271.268 227.874 282.666C228.369 288.004 229.32 293.292 229.979 298.617C231.251 308.84 232.568 319.062 233.622 329.319C233.896 331.969 234.034 335.219 232.88 337.325C230.83 341.062 227.908 344.234 224.094 346.303C220.02 348.516 215.789 349.464 211.283 350.065C201.341 351.393 191.397 350.883 181.447 350.988C180.945 350.996 180.427 350.867 179.941 350.717C173.082 348.588 166.143 346.716 159.407 344.217C153.191 341.912 153.614 340.689 153.922 334.262C153.937 333.986 154.034 333.718 154.087 333.45C156.151 323.074 158.279 312.711 160.267 302.319C162.458 290.836 164.441 279.325 164.029 267.49C163.872 262.99 163.187 258.731 161.286 254.716C158.558 248.943 155.32 243.369 153.267 237.327C150.546 229.328 148.587 221.002 146.653 212.72C145.788 209.013 145.688 205.078 145.417 201.231C144.9 193.822 144.356 186.407 144.101 178.983C143.858 171.818 143.727 164.63 144.024 157.474C144.162 154.133 144.094 150.93 143.675 147.624C143.146 143.407 143.015 139.111 143 134.851C142.997 133.473 143.618 131.827 144.453 130.764C147.268 127.18 151.06 125.334 155.204 124.032C158.157 123.104 160.386 124.895 162.908 125.636C163.38 125.774 163.833 125.976 164.453 126.208C171.801 119.161 179.681 119.466 187.535 124.682C188.497 123.954 189.147 123.512 189.745 123.004C193.398 119.894 197.426 118.81 201.956 120.257C204.272 120.999 206.573 121.821 208.922 122.415C211.529 123.071 212.676 125.079 213.399 127.548C213.657 128.429 213.729 129.373 213.882 130.289C214.051 130.309 214.219 130.331 214.39 130.354ZM196.744 187.395C191.243 191.029 187.233 196.123 182.976 201.069C178.629 206.122 176.755 212.534 173.496 218.221C172.142 213.219 174.214 209.028 176.35 205.155C178.547 201.174 181.496 197.679 184.35 193.643C183.582 193.527 182.927 193.365 182.267 193.336C177.511 193.114 173.833 190.9 172.018 186.076C171.135 183.73 169.786 183.422 167.855 183.501C165.685 183.59 163.511 183.519 161.343 183.507C155.716 183.478 151.594 180.469 148.708 175.532C147.902 174.159 147.711 172.105 147.842 170.419C148.05 167.688 147.529 165.26 146.258 162.282C146.258 168.239 146.056 173.596 146.302 178.931C146.678 186.904 147.228 194.877 147.978 202.818C148.469 208.011 149.27 213.188 150.255 218.299C151.11 222.746 152.107 227.217 153.598 231.45C155.681 237.353 157.652 243.483 160.792 248.733C167.058 259.206 167.927 270.553 166.279 282.178C164.038 297.968 161.01 313.627 158.26 329.329C157.833 331.765 156.968 334.107 156.506 336.534C155.91 339.677 156.383 340.836 158.915 341.664C165.62 343.852 172.36 345.906 179.119 347.885C180.566 348.307 182.154 348.311 183.671 348.278C191.327 348.099 198.994 348.067 206.63 347.552C211.936 347.195 217.216 346.495 222.082 343.553C225.443 341.517 227.92 338.657 230.209 335.529C230.834 334.67 231.012 333.179 230.933 332.02C230.569 326.526 230.13 321.038 229.554 315.577C228.748 307.913 227.789 300.273 226.902 292.624C226.159 286.203 225.085 279.801 224.774 273.356C224.419 265.922 224.583 258.442 224.804 250.994C225.083 241.842 229.754 234.649 234.287 227.429C237.226 222.749 240.028 217.971 242.984 213.306C246.204 208.228 248.264 202.58 249.92 196.774C250.501 194.739 250.275 192.438 250.411 190.257C250.419 190.127 250.341 189.994 250.313 189.86C247.874 176.568 248.298 178.255 237.464 169.827C229.172 163.372 220.274 157.903 211.029 153.146C206.61 150.87 202.037 148.944 197.064 149.371C193.92 149.642 190.736 150.344 187.741 151.414C183.751 152.838 179.887 154.714 176.043 156.564C169.516 159.704 163.026 162.938 156.559 166.222C155.074 166.975 153.62 167.934 152.365 169.076C149.532 171.658 149.56 174.277 152.133 177.24C154.002 179.391 156.435 180.456 158.964 180.561C166.858 180.888 174.81 181.377 182.466 178.526C184.504 177.769 186.472 176.762 188.397 175.705C190.773 174.403 191.088 174.385 192.443 176.575C193.923 178.973 195.272 181.476 196.85 183.798C202.39 191.971 209.04 198.307 219.007 198.971C220.569 199.075 220.565 199.136 221.737 201.695C210.646 202.244 203.721 194.886 196.744 187.395ZM242.963 171.277C243.001 169.76 243.162 168.202 243.057 166.665C242.301 155.826 241.405 144.995 240.722 134.151C240.34 128.104 240.385 122.029 240.047 115.981C239.603 108.011 238.963 100.054 238.422 92.0885C238.346 90.9879 238.391 89.8761 238.313 88.7772C237.833 82.1981 237.458 75.6046 236.791 69.0482C236.278 64.0005 235.509 58.9706 234.599 53.9876C234.265 52.1657 233.456 50.2777 232.397 48.8222C230.282 45.9223 227.271 46.4161 225.783 49.6855C223.658 54.3555 223.01 59.4548 222.591 64.5121C221.728 74.9317 221.26 85.3884 220.506 95.8177C219.826 105.276 218.993 114.721 218.202 124.167C218.019 126.362 217.802 128.56 217.468 130.732C216.95 134.112 216.573 137.562 214.512 140.409C214.205 140.83 213.887 141.33 213.812 141.837C213.346 144.934 212.954 148.045 212.566 150.925C222.681 157.696 232.625 164.356 242.963 171.277ZM161.843 159.82C164.826 158.263 164.821 157.858 164.362 154.337C163.886 150.674 163.553 146.972 163.395 143.276C163.238 139.557 163.387 135.82 163.372 132.09C163.357 128.035 160.589 125.466 156.972 126.475C154.653 127.12 152.318 128.079 150.267 129.399C147.06 131.461 145.288 134.278 145.426 138.865C145.7 148.063 148.132 156.701 149.781 165.849C154.219 163.638 158.063 161.797 161.843 159.82ZM209.79 150.01C210.308 146.517 210.959 143.352 211.204 140.154C211.471 136.581 211.41 132.971 211.41 129.378C211.414 125.92 210.859 124.969 207.791 123.97C205.487 123.218 203.096 122.631 200.706 122.357C194.801 121.682 189.266 126.058 188.277 132.45C187.589 136.901 187.502 141.461 187.19 145.976C187.156 146.46 187.445 146.969 187.701 147.871C195.216 144.945 202.334 146.602 209.79 150.01ZM184.401 148.944C184.897 141.338 185.376 133.986 185.899 125.979C181.763 123.318 177.038 122.524 171.983 124.945C171.751 125.056 171.545 125.224 171.325 125.369C165.003 129.515 166.108 128.2 166.152 134.926C166.193 141.108 166.531 147.288 166.802 153.465C166.851 154.513 167.221 155.544 167.513 156.917C173.584 154.051 179.154 151.419 184.401 148.944ZM173.985 183.861C173.79 186.673 175.034 188.621 177.379 189.483C179.132 190.125 181.091 190.524 182.931 190.414C185.964 190.233 187.229 188.061 186.671 184.761C186.468 183.57 186.271 182.378 186.073 181.2C181.999 182.094 178.065 182.96 173.985 183.861ZM195.102 184.635C193.731 182.421 192.501 180.438 191.306 178.508C188.103 180.117 188.05 180.554 190.009 188.611C191.846 187.179 193.341 186.012 195.102 184.635Z"/>
</mask>
<path fill-rule="evenodd" clip-rule="evenodd" d="M214.39 130.354C214.94 126.425 215.659 122.513 216.007 118.563C216.518 112.8 216.709 107.007 217.125 101.237C217.743 92.6 218.295 83.9506 219.153 75.34C219.82 68.6383 220.735 61.9528 221.873 55.3253C222.454 51.9656 223.537 48.6414 225.819 46.0192C227.914 43.6148 228.918 43.3695 231.446 45.2204C234.769 47.6522 236.632 51.1636 237.467 55.3931C238.397 60.1115 239.251 64.8042 239.446 69.6678C239.698 75.8499 240.473 82.0029 240.889 88.1801C241.226 93.1245 241.117 98.1172 241.65 103.033C242.541 111.264 242.995 119.5 242.878 127.78C242.853 129.436 242.893 131.099 243.013 132.749C243.521 139.613 244.106 146.468 244.602 153.333C245.081 160.051 245.43 166.781 245.976 173.494C246.052 174.44 246.812 175.402 247.427 176.199C252.238 182.442 253.86 189.901 252.579 197.516C251.687 202.804 249.246 207.971 246.722 212.712C242.916 219.875 238.427 226.617 234.237 233.545C231.434 238.179 228.55 242.873 227.769 248.433C226.169 259.824 226.822 271.268 227.874 282.666C228.369 288.004 229.32 293.292 229.979 298.617C231.251 308.84 232.568 319.062 233.622 329.319C233.896 331.969 234.034 335.219 232.88 337.325C230.83 341.062 227.908 344.234 224.094 346.303C220.02 348.516 215.789 349.464 211.283 350.065C201.341 351.393 191.397 350.883 181.447 350.988C180.945 350.996 180.427 350.867 179.941 350.717C173.082 348.588 166.143 346.716 159.407 344.217C153.191 341.912 153.614 340.689 153.922 334.262C153.937 333.986 154.034 333.718 154.087 333.45C156.151 323.074 158.279 312.711 160.267 302.319C162.458 290.836 164.441 279.325 164.029 267.49C163.872 262.99 163.187 258.731 161.286 254.716C158.558 248.943 155.32 243.369 153.267 237.327C150.546 229.328 148.587 221.002 146.653 212.72C145.788 209.013 145.688 205.078 145.417 201.231C144.9 193.822 144.356 186.407 144.101 178.983C143.858 171.818 143.727 164.63 144.024 157.474C144.162 154.133 144.094 150.93 143.675 147.624C143.146 143.407 143.015 139.111 143 134.851C142.997 133.473 143.618 131.827 144.453 130.764C147.268 127.18 151.06 125.334 155.204 124.032C158.157 123.104 160.386 124.895 162.908 125.636C163.38 125.774 163.833 125.976 164.453 126.208C171.801 119.161 179.681 119.466 187.535 124.682C188.497 123.954 189.147 123.512 189.745 123.004C193.398 119.894 197.426 118.81 201.956 120.257C204.272 120.999 206.573 121.821 208.922 122.415C211.529 123.071 212.676 125.079 213.399 127.548C213.657 128.429 213.729 129.373 213.882 130.289C214.051 130.309 214.219 130.331 214.39 130.354ZM196.744 187.395C191.243 191.029 187.233 196.123 182.976 201.069C178.629 206.122 176.755 212.534 173.496 218.221C172.142 213.219 174.214 209.028 176.35 205.155C178.547 201.174 181.496 197.679 184.35 193.643C183.582 193.527 182.927 193.365 182.267 193.336C177.511 193.114 173.833 190.9 172.018 186.076C171.135 183.73 169.786 183.422 167.855 183.501C165.685 183.59 163.511 183.519 161.343 183.507C155.716 183.478 151.594 180.469 148.708 175.532C147.902 174.159 147.711 172.105 147.842 170.419C148.05 167.688 147.529 165.26 146.258 162.282C146.258 168.239 146.056 173.596 146.302 178.931C146.678 186.904 147.228 194.877 147.978 202.818C148.469 208.011 149.27 213.188 150.255 218.299C151.11 222.746 152.107 227.217 153.598 231.45C155.681 237.353 157.652 243.483 160.792 248.733C167.058 259.206 167.927 270.553 166.279 282.178C164.038 297.968 161.01 313.627 158.26 329.329C157.833 331.765 156.968 334.107 156.506 336.534C155.91 339.677 156.383 340.836 158.915 341.664C165.62 343.852 172.36 345.906 179.119 347.885C180.566 348.307 182.154 348.311 183.671 348.278C191.327 348.099 198.994 348.067 206.63 347.552C211.936 347.195 217.216 346.495 222.082 343.553C225.443 341.517 227.92 338.657 230.209 335.529C230.834 334.67 231.012 333.179 230.933 332.02C230.569 326.526 230.13 321.038 229.554 315.577C228.748 307.913 227.789 300.273 226.902 292.624C226.159 286.203 225.085 279.801 224.774 273.356C224.419 265.922 224.583 258.442 224.804 250.994C225.083 241.842 229.754 234.649 234.287 227.429C237.226 222.749 240.028 217.971 242.984 213.306C246.204 208.228 248.264 202.58 249.92 196.774C250.501 194.739 250.275 192.438 250.411 190.257C250.419 190.127 250.341 189.994 250.313 189.86C247.874 176.568 248.298 178.255 237.464 169.827C229.172 163.372 220.274 157.903 211.029 153.146C206.61 150.87 202.037 148.944 197.064 149.371C193.92 149.642 190.736 150.344 187.741 151.414C183.751 152.838 179.887 154.714 176.043 156.564C169.516 159.704 163.026 162.938 156.559 166.222C155.074 166.975 153.62 167.934 152.365 169.076C149.532 171.658 149.56 174.277 152.133 177.24C154.002 179.391 156.435 180.456 158.964 180.561C166.858 180.888 174.81 181.377 182.466 178.526C184.504 177.769 186.472 176.762 188.397 175.705C190.773 174.403 191.088 174.385 192.443 176.575C193.923 178.973 195.272 181.476 196.85 183.798C202.39 191.971 209.04 198.307 219.007 198.971C220.569 199.075 220.565 199.136 221.737 201.695C210.646 202.244 203.721 194.886 196.744 187.395ZM242.963 171.277C243.001 169.76 243.162 168.202 243.057 166.665C242.301 155.826 241.405 144.995 240.722 134.151C240.34 128.104 240.385 122.029 240.047 115.981C239.603 108.011 238.963 100.054 238.422 92.0885C238.346 90.9879 238.391 89.8761 238.313 88.7772C237.833 82.1981 237.458 75.6046 236.791 69.0482C236.278 64.0005 235.509 58.9706 234.599 53.9876C234.265 52.1657 233.456 50.2777 232.397 48.8222C230.282 45.9223 227.271 46.4161 225.783 49.6855C223.658 54.3555 223.01 59.4548 222.591 64.5121C221.728 74.9317 221.26 85.3884 220.506 95.8177C219.826 105.276 218.993 114.721 218.202 124.167C218.019 126.362 217.802 128.56 217.468 130.732C216.95 134.112 216.573 137.562 214.512 140.409C214.205 140.83 213.887 141.33 213.812 141.837C213.346 144.934 212.954 148.045 212.566 150.925C222.681 157.696 232.625 164.356 242.963 171.277ZM161.843 159.82C164.826 158.263 164.821 157.858 164.362 154.337C163.886 150.674 163.553 146.972 163.395 143.276C163.238 139.557 163.387 135.82 163.372 132.09C163.357 128.035 160.589 125.466 156.972 126.475C154.653 127.12 152.318 128.079 150.267 129.399C147.06 131.461 145.288 134.278 145.426 138.865C145.7 148.063 148.132 156.701 149.781 165.849C154.219 163.638 158.063 161.797 161.843 159.82ZM209.79 150.01C210.308 146.517 210.959 143.352 211.204 140.154C211.471 136.581 211.41 132.971 211.41 129.378C211.414 125.92 210.859 124.969 207.791 123.97C205.487 123.218 203.096 122.631 200.706 122.357C194.801 121.682 189.266 126.058 188.277 132.45C187.589 136.901 187.502 141.461 187.19 145.976C187.156 146.46 187.445 146.969 187.701 147.871C195.216 144.945 202.334 146.602 209.79 150.01ZM184.401 148.944C184.897 141.338 185.376 133.986 185.899 125.979C181.763 123.318 177.038 122.524 171.983 124.945C171.751 125.056 171.545 125.224 171.325 125.369C165.003 129.515 166.108 128.2 166.152 134.926C166.193 141.108 166.531 147.288 166.802 153.465C166.851 154.513 167.221 155.544 167.513 156.917C173.584 154.051 179.154 151.419 184.401 148.944ZM173.985 183.861C173.79 186.673 175.034 188.621 177.379 189.483C179.132 190.125 181.091 190.524 182.931 190.414C185.964 190.233 187.229 188.061 186.671 184.761C186.468 183.57 186.271 182.378 186.073 181.2C181.999 182.094 178.065 182.96 173.985 183.861ZM195.102 184.635C193.731 182.421 192.501 180.438 191.306 178.508C188.103 180.117 188.05 180.554 190.009 188.611C191.846 187.179 193.341 186.012 195.102 184.635Z" stroke="black" stroke-width="12" stroke-dasharray="10 10" mask="url(#path-2-inside-1_3417_12139)"/>
</svg>
