<svg width="395" height="395" viewBox="0 0 395 395" fill="none" xmlns="http://www.w3.org/2000/svg">
<rect width="395" height="395" rx="61" fill="#F6F1EB"/>
<mask id="path-2-inside-1_3417_12129" fill="white">
<path fill-rule="evenodd" clip-rule="evenodd" d="M213.202 154.562C213.381 153.852 213.629 153.153 213.733 152.431C214.251 148.775 214.812 145.122 215.205 141.451C216.123 132.86 217.382 124.275 217.719 115.656C218.184 103.928 218.958 92.2696 221.187 80.7394C221.937 76.8523 222.835 72.9607 225.304 69.7251C227.54 66.7863 229.172 66.5567 232.087 68.8201C234.893 71 236.725 73.894 237.327 77.4323C238.118 82.0634 239.043 86.6931 239.472 91.363C240.364 100.982 241.083 110.62 241.644 120.265C242.172 129.428 242.4 138.608 242.764 147.779C242.776 148.036 242.787 148.291 242.814 148.546C243.443 155.124 244.155 161.692 244.678 168.278C245.159 174.367 245.375 180.479 245.866 186.57C245.943 187.559 246.696 188.602 247.383 189.416C252.32 195.294 253.957 202.247 252.474 209.468C251.495 214.232 249.204 218.884 246.74 223.15C242.915 229.762 238.57 236.089 234.217 242.378C229.342 249.431 226.827 257.032 226.984 265.689C227.157 275.254 227.231 284.783 228.771 294.273C230.258 303.439 231.389 312.661 232.534 321.878C233.086 326.293 233.441 330.743 233.598 335.184C233.646 336.577 233.073 338.225 232.246 339.367C228.939 343.938 224.542 347.184 219.076 348.715C216.649 349.394 214.069 349.525 211.566 349.929C201.67 351.528 191.699 350.831 181.753 350.94C181.125 350.943 180.476 350.824 179.869 350.649C172.891 348.642 165.826 346.889 158.979 344.509C153.672 342.659 152.908 341.417 154.001 335.418C155.766 325.776 158.199 316.263 160.169 306.656C162.399 295.793 164.567 284.919 164.073 273.713C163.893 269.7 163.327 265.854 161.439 262.27C159.419 258.433 157.416 254.592 155.393 250.756C151.427 243.231 149.602 235 147.53 226.852C145.478 218.779 145.47 210.468 144.741 202.245C144.426 198.694 144.116 195.134 144.04 191.575C143.902 185.077 143.946 178.574 143.905 172.074C143.891 169.301 143.946 166.525 143.804 163.759C143.591 159.573 143.127 155.398 143.001 151.21C142.969 150.053 143.494 148.655 144.226 147.739C146.598 144.776 149.865 143.088 153.369 141.712C156.369 140.534 159.095 141.086 161.879 142.222C162.052 142.294 162.337 142.094 162.88 141.921C162.693 139.723 162.513 137.454 162.303 135.187C161.56 127.191 160.456 119.208 160.148 111.195C159.771 101.378 159.876 91.5315 160.148 81.7101C160.265 77.5471 161.103 73.3543 162.041 69.2748C162.817 65.8887 164.974 64.3574 167.917 64.2113C172.213 63.9996 174.513 65.1954 175.944 68.6471C176.626 70.2857 177.134 72.0318 177.449 73.7763C179.029 82.5659 180.198 91.3884 180.573 100.345C180.861 107.207 182.1 114.025 182.734 120.878C183.599 130.276 184.263 139.692 185.096 149.09C185.23 150.615 185.792 152.103 186.159 153.606C186.496 153.575 186.833 153.547 187.169 153.515C187.263 152.076 187.427 150.636 187.439 149.194C187.488 143.703 187.361 138.204 187.537 132.715C187.794 124.686 188.492 116.669 188.579 108.641C188.759 91.9162 188.597 75.1898 189.739 58.4857C190.128 52.7452 192.309 48.1141 197.324 45.0992C200.524 43.1743 203.318 43.7811 205.205 46.8914C206.176 48.4973 206.906 50.3357 207.347 52.1652C210.257 64.1308 210.988 76.3468 211.291 88.6001C211.502 96.8918 211.613 105.185 211.804 113.474C211.915 118.194 212.161 122.91 212.232 127.631C212.307 132.596 212.352 137.566 212.216 142.528C212.104 146.524 211.804 150.508 212.291 154.477C212.601 154.505 212.902 154.534 213.202 154.562ZM191.116 191.313C185.613 194.842 179.715 195.795 173.766 196.186C169.073 196.494 164.304 196.567 159.637 196.096C154.498 195.576 150.703 192.485 148.224 187.979C147.715 187.05 147.678 185.76 147.715 184.648C147.854 180.61 147.9 180.612 146.176 176.389C146.176 181.866 145.943 186.755 146.228 191.613C146.652 198.843 147.405 206.055 148.075 213.267C148.427 217.069 148.551 220.94 149.398 224.636C150.878 231.091 152.529 237.544 154.696 243.793C156.27 248.333 158.481 252.732 160.96 256.863C164.877 263.388 166.945 270.165 166.843 277.868C166.742 285.572 165.772 293.113 164.337 300.622C162.426 310.631 160.339 320.604 158.303 330.586C157.974 332.205 157.429 333.784 157.146 335.405C156.816 337.258 156.665 339.139 156.437 341.002C157.161 341.429 157.553 341.781 158.011 341.916C164.964 343.976 171.915 346.042 178.893 348.012C180.219 348.384 181.668 348.452 183.058 348.426C190.961 348.265 198.883 348.258 206.771 347.749C212.064 347.411 217.365 346.794 222.21 344.013C225.544 342.103 228.293 339.601 230.21 336.508C231.274 334.794 231.189 332.073 230.938 329.884C229.548 317.751 228.125 305.614 226.368 293.532C224.945 283.79 224.457 274.04 224.417 264.214C224.375 255.335 226.885 247.458 231.938 240.208C236.167 234.141 240.384 228.034 244.095 221.651C246.576 217.391 248.557 212.738 250.059 208.038C252.19 201.349 248.361 191.471 242.676 187.278C232.788 179.992 222.36 173.594 211.287 168.259C206.759 166.076 202.081 164.264 196.98 164.641C193.958 164.867 190.865 165.427 188.024 166.441C183.226 168.15 178.571 170.277 173.903 172.34C168.308 174.813 162.734 177.345 157.208 179.974C155.388 180.841 153.582 181.899 152.058 183.203C149.821 185.113 149.868 187.676 151.77 189.967C153.604 192.182 156.133 193.327 158.803 193.436C166.433 193.746 174.127 194.24 181.566 191.847C183.975 191.071 186.29 189.977 188.577 188.878C190.803 187.808 191.21 187.831 192.578 189.913C194.184 192.354 195.627 194.92 197.402 197.231C202.942 204.43 209.522 209.991 219.19 210.513C220.119 210.564 221.011 211.312 221.797 212.187C218.867 213.556 216.118 212.908 213.421 211.949C208.515 210.209 204.379 207.23 200.702 203.616C199.435 202.371 198.361 200.932 197.169 199.546C191.24 203.088 187.254 207.834 183.003 212.413C178.662 217.086 176.711 222.987 173.541 228.341C172.4 225.592 173.305 223.153 174.169 220.728C175.923 215.826 178.926 211.7 182.579 208.096C186.463 204.267 190.576 200.666 194.842 196.733C193.773 195.169 192.499 193.32 191.116 191.313ZM185.644 164.143C192.908 160.877 200.089 161.216 207.144 164.237C218.565 169.125 229.097 175.623 239.219 182.802C240.154 183.467 241.083 184.143 242.039 184.775C242.215 184.891 242.512 184.825 243.257 184.885C242.999 181.342 242.776 177.867 242.476 174.396C242.105 170.094 241.51 165.807 241.297 161.498C240.836 152.076 240.685 142.638 240.154 133.219C239.735 125.864 238.874 118.537 238.322 111.191C238.009 106.997 238.079 102.772 237.702 98.5856C237.038 91.2497 236.671 83.8497 234.73 76.7002C234.212 74.7961 233.283 72.816 231.996 71.3578C229.958 69.0542 227.17 69.6193 225.889 72.3792C225.088 74.1058 224.3 75.9323 224.023 77.7901C223.095 83.9511 222.333 90.1374 221.641 96.3282C221.192 100.369 220.974 104.432 220.654 108.488C220.577 109.503 220.495 110.518 220.449 111.535C219.985 122.718 219.825 133.925 217.541 144.957C216.998 147.565 216.864 150.253 216.381 152.877C216.182 153.977 215.721 155.103 215.108 156.043C214.306 157.276 213.056 158.073 211.507 157.535C210.013 157.018 209.609 155.911 209.619 154.237C209.694 141.729 209.713 129.217 209.567 116.711C209.44 105.737 209.353 94.7521 208.746 83.799C208.147 72.9905 207.551 62.1492 204.998 51.5375C203.63 45.8716 201.944 45.2796 197.351 48.9655C194.58 51.1931 193.025 54.0201 192.726 57.4479C192.25 62.9096 191.804 68.3847 191.699 73.8627C191.452 86.7542 191.568 99.6561 191.246 112.546C190.953 124.142 190.297 135.727 189.736 147.316C189.632 149.473 189.087 151.61 188.95 153.769C188.867 155.094 188.625 156.074 187.111 156.099C185.74 156.123 184.473 155.694 184.145 154.21C183.59 151.729 183.052 149.227 182.785 146.703C181.736 136.81 180.762 126.909 179.827 117.006C178.998 108.252 178.414 99.4713 177.422 90.7353C176.672 84.1554 175.59 77.6008 174.373 71.0894C173.651 67.2202 173.168 67.0129 170.504 66.9041C167.425 66.7789 165.484 67.8062 164.738 70.7957C163.821 74.4875 162.99 78.303 162.904 82.0828C162.663 92.9241 162.629 103.78 162.889 114.623C163.039 120.726 164.031 126.806 164.455 132.909C165.073 141.814 165.635 150.724 165.987 159.64C166.141 163.592 166.466 167.458 167.526 171.376C173.853 168.874 179.854 166.747 185.644 164.143ZM161.959 174.25C164.597 172.976 164.968 172.508 164.439 169.832C163.271 163.899 163.554 157.923 163.517 151.948C163.511 150.8 163.39 149.649 163.473 148.511C163.769 144.468 160.626 142.971 156.413 143.724C154.574 144.053 152.72 144.794 151.091 145.729C147.521 147.779 145.214 150.324 145.461 155.155C145.892 163.617 148.185 171.61 149.851 179.875C154.15 177.883 158.084 176.122 161.959 174.25Z"/>
</mask>
<path fill-rule="evenodd" clip-rule="evenodd" d="M213.202 154.562C213.381 153.852 213.629 153.153 213.733 152.431C214.251 148.775 214.812 145.122 215.205 141.451C216.123 132.86 217.382 124.275 217.719 115.656C218.184 103.928 218.958 92.2696 221.187 80.7394C221.937 76.8523 222.835 72.9607 225.304 69.7251C227.54 66.7863 229.172 66.5567 232.087 68.8201C234.893 71 236.725 73.894 237.327 77.4323C238.118 82.0634 239.043 86.6931 239.472 91.363C240.364 100.982 241.083 110.62 241.644 120.265C242.172 129.428 242.4 138.608 242.764 147.779C242.776 148.036 242.787 148.291 242.814 148.546C243.443 155.124 244.155 161.692 244.678 168.278C245.159 174.367 245.375 180.479 245.866 186.57C245.943 187.559 246.696 188.602 247.383 189.416C252.32 195.294 253.957 202.247 252.474 209.468C251.495 214.232 249.204 218.884 246.74 223.15C242.915 229.762 238.57 236.089 234.217 242.378C229.342 249.431 226.827 257.032 226.984 265.689C227.157 275.254 227.231 284.783 228.771 294.273C230.258 303.439 231.389 312.661 232.534 321.878C233.086 326.293 233.441 330.743 233.598 335.184C233.646 336.577 233.073 338.225 232.246 339.367C228.939 343.938 224.542 347.184 219.076 348.715C216.649 349.394 214.069 349.525 211.566 349.929C201.67 351.528 191.699 350.831 181.753 350.94C181.125 350.943 180.476 350.824 179.869 350.649C172.891 348.642 165.826 346.889 158.979 344.509C153.672 342.659 152.908 341.417 154.001 335.418C155.766 325.776 158.199 316.263 160.169 306.656C162.399 295.793 164.567 284.919 164.073 273.713C163.893 269.7 163.327 265.854 161.439 262.27C159.419 258.433 157.416 254.592 155.393 250.756C151.427 243.231 149.602 235 147.53 226.852C145.478 218.779 145.47 210.468 144.741 202.245C144.426 198.694 144.116 195.134 144.04 191.575C143.902 185.077 143.946 178.574 143.905 172.074C143.891 169.301 143.946 166.525 143.804 163.759C143.591 159.573 143.127 155.398 143.001 151.21C142.969 150.053 143.494 148.655 144.226 147.739C146.598 144.776 149.865 143.088 153.369 141.712C156.369 140.534 159.095 141.086 161.879 142.222C162.052 142.294 162.337 142.094 162.88 141.921C162.693 139.723 162.513 137.454 162.303 135.187C161.56 127.191 160.456 119.208 160.148 111.195C159.771 101.378 159.876 91.5315 160.148 81.7101C160.265 77.5471 161.103 73.3543 162.041 69.2748C162.817 65.8887 164.974 64.3574 167.917 64.2113C172.213 63.9996 174.513 65.1954 175.944 68.6471C176.626 70.2857 177.134 72.0318 177.449 73.7763C179.029 82.5659 180.198 91.3884 180.573 100.345C180.861 107.207 182.1 114.025 182.734 120.878C183.599 130.276 184.263 139.692 185.096 149.09C185.23 150.615 185.792 152.103 186.159 153.606C186.496 153.575 186.833 153.547 187.169 153.515C187.263 152.076 187.427 150.636 187.439 149.194C187.488 143.703 187.361 138.204 187.537 132.715C187.794 124.686 188.492 116.669 188.579 108.641C188.759 91.9162 188.597 75.1898 189.739 58.4857C190.128 52.7452 192.309 48.1141 197.324 45.0992C200.524 43.1743 203.318 43.7811 205.205 46.8914C206.176 48.4973 206.906 50.3357 207.347 52.1652C210.257 64.1308 210.988 76.3468 211.291 88.6001C211.502 96.8918 211.613 105.185 211.804 113.474C211.915 118.194 212.161 122.91 212.232 127.631C212.307 132.596 212.352 137.566 212.216 142.528C212.104 146.524 211.804 150.508 212.291 154.477C212.601 154.505 212.902 154.534 213.202 154.562ZM191.116 191.313C185.613 194.842 179.715 195.795 173.766 196.186C169.073 196.494 164.304 196.567 159.637 196.096C154.498 195.576 150.703 192.485 148.224 187.979C147.715 187.05 147.678 185.76 147.715 184.648C147.854 180.61 147.9 180.612 146.176 176.389C146.176 181.866 145.943 186.755 146.228 191.613C146.652 198.843 147.405 206.055 148.075 213.267C148.427 217.069 148.551 220.94 149.398 224.636C150.878 231.091 152.529 237.544 154.696 243.793C156.27 248.333 158.481 252.732 160.96 256.863C164.877 263.388 166.945 270.165 166.843 277.868C166.742 285.572 165.772 293.113 164.337 300.622C162.426 310.631 160.339 320.604 158.303 330.586C157.974 332.205 157.429 333.784 157.146 335.405C156.816 337.258 156.665 339.139 156.437 341.002C157.161 341.429 157.553 341.781 158.011 341.916C164.964 343.976 171.915 346.042 178.893 348.012C180.219 348.384 181.668 348.452 183.058 348.426C190.961 348.265 198.883 348.258 206.771 347.749C212.064 347.411 217.365 346.794 222.21 344.013C225.544 342.103 228.293 339.601 230.21 336.508C231.274 334.794 231.189 332.073 230.938 329.884C229.548 317.751 228.125 305.614 226.368 293.532C224.945 283.79 224.457 274.04 224.417 264.214C224.375 255.335 226.885 247.458 231.938 240.208C236.167 234.141 240.384 228.034 244.095 221.651C246.576 217.391 248.557 212.738 250.059 208.038C252.19 201.349 248.361 191.471 242.676 187.278C232.788 179.992 222.36 173.594 211.287 168.259C206.759 166.076 202.081 164.264 196.98 164.641C193.958 164.867 190.865 165.427 188.024 166.441C183.226 168.15 178.571 170.277 173.903 172.34C168.308 174.813 162.734 177.345 157.208 179.974C155.388 180.841 153.582 181.899 152.058 183.203C149.821 185.113 149.868 187.676 151.77 189.967C153.604 192.182 156.133 193.327 158.803 193.436C166.433 193.746 174.127 194.24 181.566 191.847C183.975 191.071 186.29 189.977 188.577 188.878C190.803 187.808 191.21 187.831 192.578 189.913C194.184 192.354 195.627 194.92 197.402 197.231C202.942 204.43 209.522 209.991 219.19 210.513C220.119 210.564 221.011 211.312 221.797 212.187C218.867 213.556 216.118 212.908 213.421 211.949C208.515 210.209 204.379 207.23 200.702 203.616C199.435 202.371 198.361 200.932 197.169 199.546C191.24 203.088 187.254 207.834 183.003 212.413C178.662 217.086 176.711 222.987 173.541 228.341C172.4 225.592 173.305 223.153 174.169 220.728C175.923 215.826 178.926 211.7 182.579 208.096C186.463 204.267 190.576 200.666 194.842 196.733C193.773 195.169 192.499 193.32 191.116 191.313ZM185.644 164.143C192.908 160.877 200.089 161.216 207.144 164.237C218.565 169.125 229.097 175.623 239.219 182.802C240.154 183.467 241.083 184.143 242.039 184.775C242.215 184.891 242.512 184.825 243.257 184.885C242.999 181.342 242.776 177.867 242.476 174.396C242.105 170.094 241.51 165.807 241.297 161.498C240.836 152.076 240.685 142.638 240.154 133.219C239.735 125.864 238.874 118.537 238.322 111.191C238.009 106.997 238.079 102.772 237.702 98.5856C237.038 91.2497 236.671 83.8497 234.73 76.7002C234.212 74.7961 233.283 72.816 231.996 71.3578C229.958 69.0542 227.17 69.6193 225.889 72.3792C225.088 74.1058 224.3 75.9323 224.023 77.7901C223.095 83.9511 222.333 90.1374 221.641 96.3282C221.192 100.369 220.974 104.432 220.654 108.488C220.577 109.503 220.495 110.518 220.449 111.535C219.985 122.718 219.825 133.925 217.541 144.957C216.998 147.565 216.864 150.253 216.381 152.877C216.182 153.977 215.721 155.103 215.108 156.043C214.306 157.276 213.056 158.073 211.507 157.535C210.013 157.018 209.609 155.911 209.619 154.237C209.694 141.729 209.713 129.217 209.567 116.711C209.44 105.737 209.353 94.7521 208.746 83.799C208.147 72.9905 207.551 62.1492 204.998 51.5375C203.63 45.8716 201.944 45.2796 197.351 48.9655C194.58 51.1931 193.025 54.0201 192.726 57.4479C192.25 62.9096 191.804 68.3847 191.699 73.8627C191.452 86.7542 191.568 99.6561 191.246 112.546C190.953 124.142 190.297 135.727 189.736 147.316C189.632 149.473 189.087 151.61 188.95 153.769C188.867 155.094 188.625 156.074 187.111 156.099C185.74 156.123 184.473 155.694 184.145 154.21C183.59 151.729 183.052 149.227 182.785 146.703C181.736 136.81 180.762 126.909 179.827 117.006C178.998 108.252 178.414 99.4713 177.422 90.7353C176.672 84.1554 175.59 77.6008 174.373 71.0894C173.651 67.2202 173.168 67.0129 170.504 66.9041C167.425 66.7789 165.484 67.8062 164.738 70.7957C163.821 74.4875 162.99 78.303 162.904 82.0828C162.663 92.9241 162.629 103.78 162.889 114.623C163.039 120.726 164.031 126.806 164.455 132.909C165.073 141.814 165.635 150.724 165.987 159.64C166.141 163.592 166.466 167.458 167.526 171.376C173.853 168.874 179.854 166.747 185.644 164.143ZM161.959 174.25C164.597 172.976 164.968 172.508 164.439 169.832C163.271 163.899 163.554 157.923 163.517 151.948C163.511 150.8 163.39 149.649 163.473 148.511C163.769 144.468 160.626 142.971 156.413 143.724C154.574 144.053 152.72 144.794 151.091 145.729C147.521 147.779 145.214 150.324 145.461 155.155C145.892 163.617 148.185 171.61 149.851 179.875C154.15 177.883 158.084 176.122 161.959 174.25Z" stroke="black" stroke-width="12" stroke-dasharray="10 10" mask="url(#path-2-inside-1_3417_12129)"/>
</svg>
